#N canvas 491 86 532 269 10;
#X obj 139 33 cnv 15 150 100 empty empty empty 20 12 0 14 -233017 -66577
0;
#X obj 160 40 adc~;
#X obj 155 100 send~ InputSound;
#X obj 47 192 dac~;
#X obj 56 155 catch~ SoundOut;
#X obj 192 155 cnv 15 100 60 empty empty empty 20 12 0 14 -233017 -66577
0;
#N canvas 609 268 756 414 tables 0;
#N canvas 0 50 450 250 (subpatch) 0;
#X array 1-sample 87007 float 2;
#X coords 0 1 87007 -1 200 140 1;
#X restore 265 52 graph;
#N canvas 0 50 450 250 (subpatch) 0;
#X array 2-sample 55049 float 2;
#X coords 0 1 55049 -1 200 140 1;
#X restore 38 253 graph;
#N canvas 0 50 450 250 (subpatch) 0;
#X array 3-sample 98805 float 2;
#X coords 0 1 98805 -1 200 140 1;
#X restore 271 248 graph;
#N canvas 0 50 450 250 (subpatch) 0;
#X array 0-sample 129070 float 2;
#X coords 0 1 129070 -1 200 140 1;
#X restore 38 50 graph;
#N canvas 0 50 450 250 (subpatch) 0;
#X array sample 25793 float 2;
#X coords 0 1 25793 -1 200 140 1;
#X restore 512 125 graph;
#X restore 210 193 pd tables;
#X obj 207 56 env~;
#X obj 207 75 s VolIn;
#N canvas 51 156 792 431 samples 0;
#X obj 313 392 soundfiler;
#X obj 30 137 tabplay~ sample;
#X obj 36 112 bng 15 250 50 0 empty empty empty 17 7 0 10 -262144 -1
-1;
#X msg 198 271 read -resize audio_samples/kickit.aif sample;
#X msg 484 335 read -resize audio_samples/pumpit.aif sample;
#X obj 478 221 bng 15 250 50 0 empty empty empty 17 7 0 10 -262144
-1 -1;
#X obj 500 265 t b b;
#X obj 247 198 bng 15 250 50 0 empty empty empty 17 7 0 10 -262144
-1 -1;
#X obj 126 172 s endSample;
#X obj 41 80 r goSample;
#X obj 127 284 s goSample;
#X obj 414 339 s goSample;
#X obj 238 34 r start;
#X msg 246 99 0;
#X obj 234 68 t b b b;
#X msg 279 103 1;
#X obj 253 165 spigot;
#X msg 427 129 0;
#X obj 386 94 t b b b;
#X msg 399 128 1;
#X obj 376 160 spigot;
#X text 631 42 init sounds;
#X obj 540 44 r defSampN;
#N canvas 316 149 448 364 def0 0;
#X obj 36 328 soundfiler;
#X obj 25 36 bng 15 250 50 0 empty empty empty 17 7 0 10 -262144 -1
-1;
#X obj 26 11 inlet;
#X msg 87 138 read -resize poemacto/102.wav 1-sample;
#X msg 98 209 read -resize poemacto/103.wav 2-sample;
#X msg 84 287 read -resize poemacto/104.wav 3-sample;
#X msg 73 72 read -resize poemacto/101.wav 0-sample;
#X connect 1 0 6 0;
#X connect 1 0 3 0;
#X connect 1 0 4 0;
#X connect 1 0 5 0;
#X connect 2 0 1 0;
#X connect 3 0 0 0;
#X connect 4 0 0 0;
#X connect 5 0 0 0;
#X connect 6 0 0 0;
#X restore 488 108 pd def0;
#N canvas 864 314 452 361 def1 0;
#X obj 69 323 soundfiler;
#X obj 25 36 bng 15 250 50 0 empty empty empty 17 7 0 10 -262144 -1
-1;
#X msg 73 73 read -resize poemacto/201.wav 0-sample;
#X msg 87 138 read -resize poemacto/202.wav 1-sample;
#X msg 98 209 read -resize poemacto/203.wav 2-sample;
#X msg 84 287 read -resize poemacto/204.wav 3-sample;
#X obj 27 10 inlet;
#X connect 1 0 3 0;
#X connect 1 0 4 0;
#X connect 1 0 2 0;
#X connect 1 0 5 0;
#X connect 2 0 0 0;
#X connect 3 0 0 0;
#X connect 4 0 0 0;
#X connect 5 0 0 0;
#X connect 6 0 1 0;
#X restore 487 132 pd def1;
#X obj 469 44 r defBang;
#N canvas 642 339 452 361 def2 0;
#X obj 45 322 soundfiler;
#X obj 25 36 bng 15 250 50 0 empty empty empty 17 7 0 10 -262144 -1
-1;
#X msg 73 73 read -resize poemacto/301.wav 0-sample;
#X msg 87 138 read -resize poemacto/302.wav 1-sample;
#X msg 98 209 read -resize poemacto/303.wav 2-sample;
#X msg 84 287 read -resize poemacto/304.wav 3-sample;
#X obj 28 8 inlet;
#X connect 1 0 3 0;
#X connect 1 0 4 0;
#X connect 1 0 2 0;
#X connect 1 0 5 0;
#X connect 2 0 0 0;
#X connect 3 0 0 0;
#X connect 4 0 0 0;
#X connect 5 0 0 0;
#X connect 6 0 1 0;
#X restore 487 156 pd def2;
#N canvas 786 278 452 361 def3 0;
#X obj 69 323 soundfiler;
#X obj 37 43 bng 15 250 50 0 empty empty empty 17 7 0 10 -262144 -1
-1;
#X msg 73 73 read -resize poemacto/401.wav 0-sample;
#X msg 87 138 read -resize poemacto/402.wav 1-sample;
#X msg 98 209 read -resize poemacto/403.wav 2-sample;
#X msg 84 287 read -resize poemacto/404.wav 3-sample;
#X obj 28 8 inlet;
#X connect 1 0 3 0;
#X connect 1 0 4 0;
#X connect 1 0 2 0;
#X connect 1 0 5 0;
#X connect 2 0 0 0;
#X connect 3 0 0 0;
#X connect 4 0 0 0;
#X connect 5 0 0 0;
#X connect 6 0 1 0;
#X restore 487 178 pd def3;
#X obj 21 172 throw~ SoundOut;
#X obj 479 77 demux . . . . . . . .;
#N canvas 592 89 448 364 def4 0;
#X obj 69 323 soundfiler;
#X obj 25 36 bng 15 250 50 0 empty empty empty 17 7 0 10 -262144 -1
-1;
#X msg 73 73 read -resize poemacto/501.wav 0-sample;
#X msg 87 138 read -resize poemacto/502.wav 1-sample;
#X msg 98 209 read -resize poemacto/503.wav 2-sample;
#X msg 84 287 read -resize poemacto/504.wav 3-sample;
#X obj 28 8 inlet;
#X connect 1 0 3 0;
#X connect 1 0 4 0;
#X connect 1 0 2 0;
#X connect 1 0 5 0;
#X connect 2 0 0 0;
#X connect 3 0 0 0;
#X connect 4 0 0 0;
#X connect 5 0 0 0;
#X connect 6 0 1 0;
#X restore 551 105 pd def4;
#N canvas 866 313 452 361 def5 0;
#X obj 69 323 soundfiler;
#X obj 25 36 bng 15 250 50 0 empty empty empty 17 7 0 10 -262144 -1
-1;
#X msg 73 73 read -resize poemacto/601.wav 0-sample;
#X msg 87 138 read -resize poemacto/602.wav 1-sample;
#X msg 98 209 read -resize poemacto/603.wav 2-sample;
#X msg 84 287 read -resize poemacto/604.wav 3-sample;
#X obj 28 8 inlet;
#X connect 1 0 3 0;
#X connect 1 0 4 0;
#X connect 1 0 2 0;
#X connect 1 0 5 0;
#X connect 2 0 0 0;
#X connect 3 0 0 0;
#X connect 4 0 0 0;
#X connect 5 0 0 0;
#X connect 6 0 1 0;
#X restore 551 130 pd def5;
#N canvas 642 339 452 361 def6 0;
#X obj 57 307 soundfiler;
#X obj 44 34 bng 15 250 50 0 empty empty empty 17 7 0 10 -262144 -1
-1;
#X msg 89 59 read -resize poemacto/701.wav 0-sample;
#X msg 103 124 read -resize poemacto/702.wav 1-sample;
#X msg 114 195 read -resize poemacto/703.wav 2-sample;
#X msg 100 273 read -resize poemacto/704.wav 3-sample;
#X obj 28 8 inlet;
#X connect 1 0 3 0;
#X connect 1 0 4 0;
#X connect 1 0 2 0;
#X connect 1 0 5 0;
#X connect 2 0 0 0;
#X connect 3 0 0 0;
#X connect 4 0 0 0;
#X connect 5 0 0 0;
#X connect 6 0 1 0;
#X restore 550 155 pd def6;
#N canvas 786 273 407 366 def7 0;
#X obj 38 325 soundfiler;
#X obj 25 36 bng 15 250 50 0 empty empty empty 17 7 0 10 -262144 -1
-1;
#X msg 73 73 read -resize poemacto/801.wav 0-sample;
#X msg 87 138 read -resize poemacto/802.wav 1-sample;
#X msg 98 210 read -resize poemacto/803.wav 2-sample;
#X msg 84 287 read -resize poemacto/804.wav 3-sample;
#X obj 28 8 inlet;
#X connect 1 0 3 0;
#X connect 1 0 4 0;
#X connect 1 0 2 0;
#X connect 1 0 5 0;
#X connect 2 0 0 0;
#X connect 3 0 0 0;
#X connect 4 0 0 0;
#X connect 5 0 0 0;
#X connect 6 0 1 0;
#X restore 550 179 pd def7;
#X obj 224 229 t b b;
#X obj 383 43 r over-sound;
#X connect 1 0 28 0;
#X connect 1 1 8 0;
#X connect 2 0 1 0;
#X connect 5 0 6 0;
#X connect 6 0 11 0;
#X connect 6 1 4 0;
#X connect 7 0 34 0;
#X connect 9 0 2 0;
#X connect 12 0 14 0;
#X connect 13 0 20 1;
#X connect 14 0 16 0;
#X connect 14 1 15 0;
#X connect 14 2 13 0;
#X connect 15 0 16 1;
#X connect 16 0 7 0;
#X connect 17 0 16 1;
#X connect 18 0 20 0;
#X connect 18 1 19 0;
#X connect 18 2 17 0;
#X connect 19 0 20 1;
#X connect 20 0 5 0;
#X connect 22 0 29 1;
#X connect 25 0 29 0;
#X connect 29 0 23 0;
#X connect 29 1 24 0;
#X connect 29 2 26 0;
#X connect 29 3 27 0;
#X connect 29 4 30 0;
#X connect 29 5 31 0;
#X connect 29 6 32 0;
#X connect 29 7 33 0;
#X connect 34 0 10 0;
#X connect 34 1 3 0;
#X connect 35 0 18 0;
#X restore 209 167 pd samples;
#X obj 46 33 loadbang;
#X msg 46 57 1;
#X obj 46 80 tgl 15 0 empty empty empty 17 7 0 10 -262144 -1 -1 1 1
;
#X msg 46 102 \; pd dsp \$1;
#X obj 316 48 tgl 30 0 empty empty empty 17 7 0 10 -257985 -1 -1 1
1;
#X obj 320 161 HotSpot-A 0;
#X obj 107 180 env~;
#X obj 107 199 s VolOut;
#N canvas 302 115 453 477 DetSilence 0;
#X obj 67 13 r VolOut;
#X obj 34 71 sel 0;
#X obj 40 209 line;
#X obj 35 113 bng 15 250 50 0 empty empty empty 17 7 0 10 -262144 -1
-1;
#X floatatom 46 235 5 0 0 0 - - -;
#X floatatom 165 90 5 0 0 0 - - -;
#X text 193 19 you need to detect a 5min silence;
#X obj 55 258 sel 1;
#X obj 143 248 == 0;
#X obj 109 279 f;
#X msg 70 177 0;
#X obj 35 141 t b b;
#X obj 79 139 bng 15 250 50 0 empty empty empty 17 7 0 10 -262144 -1
-1;
#X obj 67 40 change;
#X obj 154 437 s silence;
#X text 191 110 detect VolOut 0 \, start the line \; after X sec checks
if VolOut is still 0 \; if yes send Silence;
#X msg 12 177 1 1000;
#X obj 29 370 s repeatDetect;
#X obj 63 105 r repeatDetect;
#X obj 182 378 f;
#X obj 225 376 + 1;
#X floatatom 234 406 5 0 0 0 - - -;
#X obj 111 308 sel 1 0;
#X msg 169 332 0;
#X obj 172 407 sel 60;
#X connect 0 0 13 0;
#X connect 1 0 3 0;
#X connect 2 0 4 0;
#X connect 3 0 11 0;
#X connect 4 0 7 0;
#X connect 5 0 8 0;
#X connect 7 0 9 0;
#X connect 8 0 9 1;
#X connect 9 0 22 0;
#X connect 10 0 2 0;
#X connect 11 0 16 0;
#X connect 11 1 10 0;
#X connect 12 0 11 0;
#X connect 13 0 1 0;
#X connect 13 0 5 0;
#X connect 16 0 2 0;
#X connect 18 0 3 0;
#X connect 19 0 20 0;
#X connect 19 0 21 0;
#X connect 19 0 24 0;
#X connect 20 0 19 1;
#X connect 22 0 19 0;
#X connect 22 0 17 0;
#X connect 22 1 23 0;
#X connect 23 0 19 0;
#X connect 24 0 14 0;
#X connect 24 0 23 0;
#X restore 49 227 pd DetSilence;
#N canvas 6 288 848 456 netlink2video 0;
#X obj 38 33 netreceive 8900;
#X obj 25 110 s bangSample0;
#X obj 23 137 s bangSample1;
#X obj 32 166 s bangSample2;
#X obj 31 201 s bangSample3;
#X obj 133 129 s defBang;
#X obj 144 157 s defSampN;
#X obj 208 130 s start;
#X obj 436 371 netsend;
#X msg 436 92 connect localhost 8901;
#X msg 449 122 disconnect;
#X obj 471 154 r VolIn;
#X msg 472 178 send /VolIn \$1;
#X obj 438 12 inlet;
#X obj 434 36 tgl 15 0 empty empty empty 17 7 0 10 -262144 -1 -1 1
1;
#X obj 438 60 sel 1 0;
#X obj 608 103 r 0-bolaOn;
#X msg 609 127 send /0-bolaOn \$1;
#X obj 612 151 r 1-bolaOn;
#X msg 613 175 send /1-bolaOn \$1;
#X obj 615 202 r 2-bolaOn;
#X msg 616 226 send /2-bolaOn \$1;
#X obj 618 253 r 3-bolaOn;
#X msg 619 277 send /3-bolaOn \$1;
#X obj 436 413 outlet;
#X obj 214 153 s over-sound;
#X obj 31 64 route /bangSample0 /bangSample1 /bangSample2 /bangSample3
/defBang /defSampN /start /over-sound;
#X obj 626 315 r silence;
#X msg 627 339 send /silence;
#X connect 0 0 26 0;
#X connect 8 0 24 0;
#X connect 9 0 8 0;
#X connect 10 0 8 0;
#X connect 11 0 12 0;
#X connect 12 0 8 0;
#X connect 13 0 14 0;
#X connect 14 0 15 0;
#X connect 15 0 9 0;
#X connect 15 1 10 0;
#X connect 16 0 17 0;
#X connect 17 0 8 0;
#X connect 18 0 19 0;
#X connect 19 0 8 0;
#X connect 20 0 21 0;
#X connect 21 0 8 0;
#X connect 22 0 23 0;
#X connect 23 0 8 0;
#X connect 26 0 1 0;
#X connect 26 1 2 0;
#X connect 26 2 3 0;
#X connect 26 3 4 0;
#X connect 26 4 5 0;
#X connect 26 5 6 0;
#X connect 26 6 7 0;
#X connect 26 7 25 0;
#X connect 27 0 28 0;
#X connect 28 0 8 0;
#X restore 316 87 pd netlink2video;
#X obj 82 58 s init;
#X obj 378 13 r init;
#X msg 366 62 1;
#X obj 360 39 delay 2000;
#X obj 316 114 tgl 15 0 empty empty empty 17 7 0 10 -262144 -1 -1 0
1;
#X msg 437 36 \; defBang;
#X obj 417 199 HotSpot-A 3;
#X obj 416 162 HotSpot-A 1;
#X obj 321 198 HotSpot-A 2;
#X connect 1 0 2 0;
#X connect 1 0 7 0;
#X connect 1 1 2 0;
#X connect 1 1 7 0;
#X connect 4 0 3 0;
#X connect 4 0 3 1;
#X connect 4 0 16 0;
#X connect 7 0 8 0;
#X connect 10 0 11 0;
#X connect 10 0 20 0;
#X connect 11 0 12 0;
#X connect 12 0 13 0;
#X connect 14 0 19 0;
#X connect 16 0 17 0;
#X connect 19 0 24 0;
#X connect 21 0 23 0;
#X connect 21 0 25 0;
#X connect 22 0 14 0;
#X connect 23 0 22 0;
