#N canvas 24 395 479 281 10;
#X obj 16 142 tgl 50 0 liga liga-r LIGA 0 16 0 20 -4034 -1 -1 0 1;
#X obj 11 9 cnv 15 240 120 empty empty empty 20 12 0 14 -233017 -66577
0;
#X obj 284 81 cnv 15 160 180 empty empty empty 20 12 0 14 -228856 -66577
0;
#N canvas 603 133 520 551 patch 0;
#X obj 18 165 gemhead;
#X obj 17 249 pix_video;
#X obj 17 282 pix_rgba;
#X obj 53 470 rectangle 5.333 4;
#X obj 53 445 pix_texture;
#X obj 53 419 pix_separator;
#X obj 57 321 pix_flip;
#X msg 88 296 horizontal;
#X obj 88 273 r init;
#X obj 18 210 alpha;
#X floatatom 90 42 5 0 0 0 - - -, f 5;
#X obj 90 65 s THR;
#X obj 26 18 tgl 45 0 empty liga empty 17 7 0 10 -4034 -1 -1 0 1;
#X obj 26 98 s STORE;
#X obj 90 19 bng 15 250 50 0 empty empty empty 17 7 0 10 -262144 -1
-1;
#X obj 26 73 == 0;
#X obj 57 394 colorRGB;
#X obj 118 347 r miximg;
#X obj 118 369 expr 1 -$f1;
#X obj 62 186 r dev2;
#X msg 62 213 device \$1;
#X obj 199 314 cnv 15 300 150 empty empty empty 20 12 0 14 -260097
-66577 0;
#X msg 122 185 0;
#X obj 18 142 r MainImg;
#N canvas 258 295 503 292 Android_conn 0;
#X obj 46 48 netreceive 8000;
#X obj 56 89 print;
#X obj 44 183 s start-r;
#X obj 44 208 s over-r;
#X obj 46 158 s liga-r;
#X obj 111 208 s defSampN-r;
#X obj 213 170 s dev2-r;
#X obj 406 110 netsend;
#X msg 343 32 connect localhost 8001;
#X msg 403 64 disconnect;
#X obj 411 139 tgl 15 0 empty empty empty 17 7 0 10 -262144 -1 -1 0
1;
#X obj 212 204 s textOn-r;
#X obj 276 169 s THR-r;
#X obj 333 192 s checkSoundIn-r;
#X obj 114 183 s defBang-r;
#X obj 27 115 route /liga /start /over /defBang /defSampN /dev2 /textOn
/THR /checkSoundIn;
#X floatatom 150 163 5 0 0 0 - - -, f 5;
#X connect 0 0 15 0;
#X connect 7 0 10 0;
#X connect 8 0 7 0;
#X connect 9 0 7 0;
#X connect 15 0 4 0;
#X connect 15 1 2 0;
#X connect 15 2 3 0;
#X connect 15 3 14 0;
#X connect 15 4 5 0;
#X connect 15 4 16 0;
#X connect 15 5 6 0;
#X connect 15 6 11 0;
#X connect 15 7 12 0;
#X connect 15 8 13 0;
#X restore 225 480 pd Android_conn;
#N canvas 258 61 708 673 netlink_audio 0;
#X obj 15 628 netsend;
#X msg 30 95 connect localhost 8900;
#X msg 43 121 disconnect;
#X obj 15 657 tgl 15 0 YA empty empty 17 7 0 10 -262144 -1 -1 1 1;
#X obj 69 146 r bangSample0;
#X obj 104 202 r bangSample1;
#X obj 127 262 r bangSample2;
#X obj 139 319 r bangSample3;
#X msg 69 170 send /bangSample0;
#X msg 104 225 send /bangSample1;
#X msg 138 343 send /bangSample3;
#X msg 126 288 send /bangSample2;
#X obj 185 378 r defBang;
#X msg 189 403 send /defBang;
#X obj 211 497 r start;
#X msg 211 522 send /start;
#X obj 31 36 tgl 15 0 empty empty empty 17 7 0 10 -262144 -1 -1 1 1
;
#X obj 34 11 r conn;
#X obj 28 64 sel 1 0;
#X obj 192 440 r defSampN;
#X msg 195 465 send /defSampN \$1;
#X obj 318 28 netreceive 8901;
#X obj 235 120 s VolIn;
#X obj 378 203 s 0-bolaOn \$1;
#X obj 489 119 s 3-bolaOn \$1;
#X obj 426 149 s 2-bolaOn \$1;
#X obj 395 178 s 1-bolaOn \$1;
#X obj 212 617 r checkSoundIn;
#X msg 212 641 send /checkSoundIn \$1;
#X obj 93 40 s defBang;
#X msg 212 584 send /over-sound;
#X obj 211 559 r over-sound;
#X obj 273 171 spigot;
#X obj 283 102 t f f;
#X obj 270 146 r ShowSoundIn;
#X obj 283 214 s VolIn-show;
#X obj 620 91 bng 15 250 50 0 empty empty empty 17 7 0 10 -262144 -1
-1;
#X obj 592 117 s silence;
#X obj 318 59 route /VolIn /0-bolaOn /1-bolaOn /2-bolaOn /3-bolaOn
/silence;
#X connect 0 0 3 0;
#X connect 1 0 0 0;
#X connect 2 0 0 0;
#X connect 4 0 8 0;
#X connect 5 0 9 0;
#X connect 6 0 11 0;
#X connect 7 0 10 0;
#X connect 8 0 0 0;
#X connect 9 0 0 0;
#X connect 10 0 0 0;
#X connect 11 0 0 0;
#X connect 12 0 13 0;
#X connect 13 0 0 0;
#X connect 14 0 15 0;
#X connect 15 0 0 0;
#X connect 16 0 18 0;
#X connect 17 0 16 0;
#X connect 18 0 1 0;
#X connect 18 0 29 0;
#X connect 18 1 2 0;
#X connect 19 0 20 0;
#X connect 20 0 0 0;
#X connect 21 0 38 0;
#X connect 27 0 28 0;
#X connect 28 0 0 0;
#X connect 30 0 0 0;
#X connect 31 0 30 0;
#X connect 32 0 35 0;
#X connect 33 0 22 0;
#X connect 33 1 32 0;
#X connect 34 0 32 1;
#X connect 36 0 37 0;
#X connect 38 0 33 0;
#X connect 38 1 23 0;
#X connect 38 2 26 0;
#X connect 38 3 25 0;
#X connect 38 4 24 0;
#X connect 38 5 37 0;
#X restore 224 505 pd netlink_audio;
#X obj 235 228 cnv 15 100 60 empty empty empty 20 12 0 14 -233017 -66577
0;
#N canvas 493 143 743 546 sampleCoords 0;
#X floatatom 236 38 5 0 0 0 - - -, f 5;
#X obj 200 15 r sampleN;
#X msg 44 328 \; \$1-X \$2 \; \$1-Y \$3 \;;
#X obj 44 284 pack f f f;
#X obj 450 14 table Xcoor 4;
#X obj 451 40 table Ycoor 4;
#X obj 573 144 tabwrite Xcoor;
#X obj 237 339 tabread Xcoor;
#X obj 237 263 f;
#X obj 237 285 + 1;
#X obj 237 238 until;
#X obj 590 56 tabwrite Ycoor;
#X obj 237 308 mod 4;
#X msg 238 216 4;
#X obj 237 432 ==;
#X obj 252 402 f;
#X obj 237 454 sel 1;
#X obj 671 32 r sampleN;
#X obj 640 119 r sampleN;
#X obj 44 74 r sampleN;
#X obj 97 256 f;
#X obj 66 256 f;
#X obj 341 145 s Xcoor-prop;
#X obj 429 143 s Ycoor-prop;
#X obj 590 30 r Ycoor-prop;
#X obj 581 97 r Xcoor-prop;
#X obj 104 170 r Xcoor-prop;
#X obj 136 209 r Ycoor-prop;
#X obj 66 156 t b b;
#X obj 264 480 s SetCoord;
#X obj 66 134 r SetCoord;
#X obj 267 367 r Xcoor-prop;
#X obj 351 44 t b b;
#X obj 347 9 r GeraCoord;
#X obj 200 60 t b b;
#X obj 226 95 s GeraCoord;
#X obj 202 123 s TestaCoord;
#X obj 238 189 r TestaCoord;
#X obj 416 271 f;
#X obj 416 293 + 1;
#X obj 416 246 until;
#X obj 416 316 mod 4;
#X msg 417 224 4;
#X obj 416 440 ==;
#X obj 431 410 f;
#X obj 416 462 sel 1;
#X obj 443 488 s SetCoord;
#X obj 237 516 s TestaCoord-Y;
#X obj 417 198 r TestaCoord-Y;
#X obj 416 347 tabread Ycoor;
#X obj 446 375 r Ycoor-prop;
#X obj 416 512 s GeraCoord;
#X obj 577 260 tabread Xcoor;
#X obj 571 322 tabread Ycoor;
#X obj 550 206 hradio 15 1 0 4 empty empty empty 0 -8 0 10 -262144
-1 -1 0;
#X floatatom 588 294 5 0 0 0 - - -, f 5;
#X floatatom 589 361 5 0 0 0 - - -, f 5;
#X obj 343 92 random 100;
#X obj 429 90 random 100;
#X obj 429 115 / 100;
#X obj 343 115 / 100;
#X connect 1 0 0 0;
#X connect 1 0 34 0;
#X connect 3 0 2 0;
#X connect 7 0 14 0;
#X connect 8 0 9 0;
#X connect 9 0 8 1;
#X connect 9 0 12 0;
#X connect 10 0 8 0;
#X connect 12 0 7 0;
#X connect 13 0 10 0;
#X connect 14 0 16 0;
#X connect 15 0 14 1;
#X connect 16 0 47 0;
#X connect 16 1 29 0;
#X connect 17 0 11 1;
#X connect 18 0 6 1;
#X connect 19 0 3 0;
#X connect 20 0 3 2;
#X connect 21 0 3 1;
#X connect 24 0 11 0;
#X connect 25 0 6 0;
#X connect 26 0 21 1;
#X connect 27 0 20 1;
#X connect 28 0 21 0;
#X connect 28 1 20 0;
#X connect 30 0 28 0;
#X connect 31 0 15 1;
#X connect 32 0 57 0;
#X connect 32 1 58 0;
#X connect 33 0 32 0;
#X connect 34 0 36 0;
#X connect 34 1 35 0;
#X connect 37 0 13 0;
#X connect 38 0 39 0;
#X connect 39 0 38 1;
#X connect 39 0 41 0;
#X connect 40 0 38 0;
#X connect 41 0 49 0;
#X connect 42 0 40 0;
#X connect 43 0 45 0;
#X connect 44 0 43 1;
#X connect 45 0 51 0;
#X connect 45 1 46 0;
#X connect 48 0 42 0;
#X connect 49 0 43 0;
#X connect 50 0 44 1;
#X connect 52 0 55 0;
#X connect 53 0 56 0;
#X connect 54 0 52 0;
#X connect 54 0 53 0;
#X connect 57 0 60 0;
#X connect 58 0 59 0;
#X connect 59 0 23 0;
#X connect 60 0 22 0;
#X restore 238 205 pd sampleCoords;
#N canvas 377 262 409 414 order_detect 0;
#X obj 32 51 bng 15 250 50 0 empty empty empty 17 7 0 10 -262144 -1
-1;
#X obj 32 149 bng 15 250 50 0 empty empty empty 17 7 0 10 -262144 -1
-1;
#X msg 33 170 \; Bn 1 \;;
#X obj 31 227 bng 15 250 50 0 empty empty empty 17 7 0 10 -262144 -1
-1;
#X obj 35 309 bng 15 250 50 0 empty empty empty 17 7 0 10 -262144 -1
-1;
#X msg 38 335 \; Bn 3 \;;
#X msg 31 248 \; Bn 2 \;;
#X msg 32 74 \; Bn 0 \;;
#X obj 145 38 r Bn;
#X msg 197 340 \; state 0;
#X obj 219 39 r state;
#X floatatom 143 70 5 0 0 0 - - -, f 5;
#X floatatom 219 66 5 0 0 0 - - -, f 5;
#X obj 143 107 t f f;
#X obj 197 163 ==;
#X obj 255 197 + 1;
#X obj 216 235 f;
#X obj 197 196 sel 0 1;
#X msg 215 260 \; state \$1;
#X obj 130 209 ==;
#X obj 145 181 - 1;
#X obj 130 234 sel 0;
#X obj 219 106 t f f f f;
#X obj 305 142 sel 4;
#X obj 364 158 bng 15 250 50 0 empty empty empty 17 7 0 10 -262144
-1 -1;
#X floatatom 288 120 5 0 0 0 - - -, f 5;
#X obj 32 24 r bangSample0;
#X obj 32 116 r bangSample1;
#X obj 30 207 r bangSample2;
#X obj 34 286 r bangSample3;
#X obj 366 221 bng 15 250 50 0 empty empty empty 17 7 0 10 -262144
-1 -1;
#X obj 252 350 s over;
#X obj 309 348 s win-eff;
#X obj 259 319 delay 5000;
#X obj 312 256 t b b b b;
#X msg 340 301 \; liga-r 0 \;;
#X connect 0 0 7 0;
#X connect 1 0 2 0;
#X connect 3 0 6 0;
#X connect 4 0 5 0;
#X connect 8 0 11 0;
#X connect 10 0 12 0;
#X connect 11 0 13 0;
#X connect 12 0 22 0;
#X connect 13 0 19 0;
#X connect 13 1 14 0;
#X connect 14 0 17 0;
#X connect 15 0 16 1;
#X connect 16 0 18 0;
#X connect 17 1 16 0;
#X connect 19 0 21 0;
#X connect 20 0 19 1;
#X connect 21 0 9 0;
#X connect 22 0 20 0;
#X connect 22 1 14 1;
#X connect 22 2 15 0;
#X connect 22 3 25 0;
#X connect 23 0 24 0;
#X connect 23 0 34 0;
#X connect 25 0 23 0;
#X connect 26 0 0 0;
#X connect 27 0 1 0;
#X connect 28 0 3 0;
#X connect 29 0 4 0;
#X connect 30 0 34 0;
#X connect 33 0 31 0;
#X connect 34 0 9 0;
#X connect 34 1 33 0;
#X connect 34 2 32 0;
#X connect 34 3 35 0;
#X restore 239 237 pd order_detect;
#N canvas 409 77 374 579 win_effects 0;
#X obj 108 375 translateXYZ;
#X obj 183 210 gemhead 60;
#X floatatom 132 353 5 0 0 0 - - -, f 5;
#X floatatom 160 356 5 0 0 0 - - -, f 5;
#X obj 185 162 r init;
#X msg 185 184 0;
#X obj 182 468 colorRGB;
#X obj 261 320 random 360;
#X obj 261 345 / 360;
#X obj 250 376 pack f 1 1;
#X obj 251 402 hsv2rgb;
#X obj 241 426 unpack f f f;
#X msg 139 151 1;
#X obj 68 168 t b b b;
#X floatatom 202 356 5 0 0 0 - - -, f 5;
#X msg 109 205 2 300;
#X obj 95 261 line;
#X obj 28 426 r init;
#X msg 43 227 -2 3000;
#X obj 144 278 separator;
#X obj 183 240 t a b;
#X obj 175 59 spigot;
#X obj 232 58 tgl 15 0 empty empty empty 17 7 0 10 -262144 -1 -1 1
1;
#X obj 233 33 inlet;
#N canvas 15 111 851 574 flash_getImg 0;
#X obj 243 30 inlet;
#X obj 235 57 bng 15 250 50 0 empty empty empty 17 7 0 10 -262144 -1
-1;
#X obj 90 33 pix_buffer winframe 1;
#X obj 454 197 pix_buffer_write winframe;
#X obj 451 168 r IMAGE;
#X obj 383 405 pix_buffer_read winframe;
#X obj 346 507 pix_texture;
#X obj 347 534 rectangle 5.333 4;
#X obj 383 376 gemhead 80;
#X obj 414 346 tgl 15 0 empty empty empty 17 7 0 10 -262144 -1 -1 0
1;
#X msg 554 153 0;
#X msg 517 368 0;
#X obj 608 126 tgl 15 0 empty empty empty 17 7 0 10 -262144 -1 -1 0
1;
#X obj 622 160 cnv 15 200 300 empty empty empty 20 12 0 14 -228856
-66577 0;
#X obj 641 277 gemhead 60;
#X obj 640 342 separator;
#X obj 637 438 rectangle 5.33 4;
#X obj 640 411 colorRGB;
#X obj 773 359 line;
#X msg 791 309 1;
#X obj 635 382 alpha;
#X msg 745 311 0 100;
#X obj 702 174 t b b b b;
#X msg 779 212 1;
#X msg 689 234 0;
#X obj 689 202 delay 100;
#X obj 689 106 bng 15 250 50 0 empty empty empty 17 7 0 10 -262144
-1 -1;
#X obj 407 127 delay 100;
#X obj 426 226 t b b b;
#X msg 460 303 1, f 2;
#X obj 344 238 r init;
#X msg 353 303 0;
#X obj 321 478 t a a;
#X obj 259 197 time . . .;
#X obj 167 179 bng 15 250 50 0 empty empty empty 17 7 0 10 -262144
-1 -1;
#X obj 156 377 pix_writer 0 0 800 600;
#X obj 607 66 r init;
#X msg 612 102 0;
#X obj 194 236 date . . .;
#X obj 188 298 pack f f f f f f;
#X obj 156 201 t b b b b;
#X obj 386 441 pix_flip;
#X obj 262 55 t b b b b b;
#X obj 29 533 print 1;
#X obj 97 532 print 2;
#X msg 183 342 file \$1\$2\$3\$4\$5\$6- 99;
#X msg 33 448 python postit_.py \$1\$2\$3\$4\$5\$6-00000.jpg;
#X obj 49 501 ggee/shell;
#X obj 42 412 list;
#X obj 59 339 t b l;
#X obj 39 380 delay 3000;
#X obj 38 476 spigot;
#X obj 100 476 r post_online;
#X obj 365 267 delay 6000;
#X connect 0 0 42 0;
#X connect 1 0 42 0;
#X connect 4 0 3 0;
#X connect 5 0 41 0;
#X connect 6 0 7 0;
#X connect 8 0 5 0;
#X connect 9 0 8 0;
#X connect 10 0 3 1;
#X connect 11 0 5 1;
#X connect 12 0 14 0;
#X connect 14 0 15 0;
#X connect 15 0 20 0;
#X connect 17 0 16 0;
#X connect 18 0 17 4;
#X connect 19 0 18 0;
#X connect 20 0 17 0;
#X connect 21 0 18 0;
#X connect 22 0 25 0;
#X connect 22 1 21 0;
#X connect 22 2 19 0;
#X connect 22 3 23 0;
#X connect 23 0 14 0;
#X connect 24 0 14 0;
#X connect 25 0 24 0;
#X connect 26 0 22 0;
#X connect 27 0 10 0;
#X connect 27 0 28 0;
#X connect 28 0 53 0;
#X connect 28 1 29 0;
#X connect 28 2 11 0;
#X connect 29 0 9 0;
#X connect 30 0 31 0;
#X connect 31 0 9 0;
#X connect 32 0 35 0;
#X connect 32 1 6 0;
#X connect 33 0 39 3;
#X connect 33 1 39 4;
#X connect 33 2 39 5;
#X connect 34 0 40 0;
#X connect 36 0 37 0;
#X connect 37 0 12 0;
#X connect 38 0 39 0;
#X connect 38 1 39 1;
#X connect 38 2 39 2;
#X connect 39 0 45 0;
#X connect 39 0 49 0;
#X connect 40 0 35 0;
#X connect 40 2 38 0;
#X connect 40 3 33 0;
#X connect 41 0 32 0;
#X connect 42 1 34 0;
#X connect 42 2 27 0;
#X connect 42 3 22 0;
#X connect 45 0 35 0;
#X connect 46 0 51 0;
#X connect 47 0 43 0;
#X connect 47 1 44 0;
#X connect 48 0 46 0;
#X connect 49 0 50 0;
#X connect 49 1 48 1;
#X connect 50 0 48 0;
#X connect 51 0 47 0;
#X connect 52 0 51 1;
#X connect 53 0 31 0;
#X restore 242 161 pd flash_getImg;
#X obj 147 88 bng 15 250 50 0 empty empty empty 17 7 0 10 -262144 -1
-1;
#X obj 159 522 text3d;
#X obj 279 34 r init;
#X msg 279 61 1;
#X msg 63 453 text conseguiste!;
#X msg 70 492 font ChocolateCoveredRaindropsBOLD.ttf;
#X obj 172 31 r win-eff;
#X obj 175 84 t b b;
#X obj 36 204 delay 3000;
#X connect 0 0 6 0;
#X connect 1 0 20 0;
#X connect 2 0 0 1;
#X connect 3 0 0 2;
#X connect 4 0 5 0;
#X connect 5 0 1 0;
#X connect 6 0 26 0;
#X connect 7 0 8 0;
#X connect 8 0 9 0;
#X connect 9 0 10 0;
#X connect 10 0 11 0;
#X connect 11 0 6 1;
#X connect 11 1 6 2;
#X connect 11 2 6 4;
#X connect 12 0 1 0;
#X connect 13 0 33 0;
#X connect 13 1 15 0;
#X connect 13 2 12 0;
#X connect 14 0 0 3;
#X connect 15 0 16 0;
#X connect 16 0 14 0;
#X connect 17 0 29 0;
#X connect 17 0 30 0;
#X connect 18 0 16 0;
#X connect 19 0 0 0;
#X connect 20 0 19 0;
#X connect 20 1 7 0;
#X connect 21 0 32 0;
#X connect 22 0 21 1;
#X connect 23 0 22 0;
#X connect 25 0 32 0;
#X connect 27 0 28 0;
#X connect 28 0 22 0;
#X connect 29 0 26 0;
#X connect 30 0 26 0;
#X connect 31 0 21 0;
#X connect 32 0 13 0;
#X connect 32 1 24 0;
#X connect 33 0 18 0;
#X restore 242 262 pd win_effects;
#X obj 209 122 cnv 15 180 60 empty empty empty 20 12 0 14 -258113 -66577
0;
#N canvas 557 218 548 298 init&gem 0;
#X obj 319 255 gemwin;
#X msg 301 202 create;
#X msg 352 205 destroy;
#X obj 261 215 tgl 15 0 empty empty empty 17 7 0 10 -262144 -1 -1 1
1;
#X obj 254 17 loadbang;
#X obj 258 111 s init;
#X obj 258 88 bng 15 250 50 0 empty empty empty 17 7 0 10 -262144 -1
-1;
#X msg 230 135 \; pd dsp \$1;
#X obj 230 112 tgl 15 0 empty empty empty 17 7 0 10 -262144 -1 -1 1
1;
#X msg 231 91 1;
#X msg 247 192 1;
#X obj 63 13 r init;
#X obj 156 226 gemhead;
#X obj 156 250 world_light;
#X obj 275 43 bng 15 250 50 0 empty empty empty 17 7 0 10 -262144 -1
-1;
#X msg 17 185 \; conn-r 1 \; defBang bang \;;
#X obj 111 162 delay 2000;
#X msg 111 186 \; CheckImg-r 1;
#X obj 17 160 delay 5000;
#X msg 439 202 dimen \$1 \$2;
#X obj 446 92 inlet dimXdimy;
#X obj 447 153 t b b l b;
#X msg 346 144 dimen 1024 768;
#X obj 274 69 t b b b b b;
#X msg 380 242 border 0;
#X obj 61 34 t b b b;
#X msg 316 115 offset 1024 0 \, border 1;
#X msg 111 54 \; liga-r 0 \; THR-r 0.3 \; THRpres-r 0.003 \; defSampN-r
0 \; Seq-r 1;
#X connect 1 0 0 0;
#X connect 2 0 0 0;
#X connect 3 0 0 0;
#X connect 4 0 9 0;
#X connect 4 0 23 0;
#X connect 6 0 5 0;
#X connect 8 0 7 0;
#X connect 9 0 8 0;
#X connect 10 0 3 0;
#X connect 11 0 25 0;
#X connect 12 0 13 0;
#X connect 14 0 23 0;
#X connect 16 0 17 0;
#X connect 18 0 15 0;
#X connect 19 0 0 0;
#X connect 20 0 21 0;
#X connect 21 0 10 0;
#X connect 21 1 1 0;
#X connect 21 2 19 0;
#X connect 21 3 2 0;
#X connect 22 0 0 0;
#X connect 23 0 5 0;
#X connect 23 1 10 0;
#X connect 23 2 1 0;
#X connect 23 3 26 0;
#X connect 23 4 22 0;
#X connect 24 0 0 0;
#X connect 25 0 18 0;
#X connect 25 1 16 0;
#X connect 25 2 27 0;
#X connect 26 0 0 0;
#X restore 241 30 pd init&gem;
#X obj 211 265 tgl 15 1 empty empty empty 17 7 0 10 -262144 -1 -1 1
1;
#X obj 51 342 t a a;
#X obj 10 367 s IMAGE;
#X msg 155 32 800 600;
#X msg 158 11 1024 768;
#X obj 310 126 HotSpot-V 1;
#X obj 220 126 HotSpot-V 0;
#X obj 309 160 HotSpot-V 3;
#X obj 219 160 HotSpot-V 2;
#X obj 249 330 r init;
#X msg 249 353 1;
#X obj 217 354 tgl 15 0 empty empty empty 17 7 0 10 -262144 -1 -1 0
1;
#X obj 436 340 vsl 15 70 0 127 0 0 empty empty NoiseINthresh 0 -9 0
10 -262144 -1 -1 0 1;
#N canvas 136 58 1218 596 visual 0;
#X obj 13 230 pix_image;
#X obj 356 317 vsl 15 60 0 1 0 0 empty empty empty 0 -9 0 10 -262144
-1 -1 0 1;
#X obj 191 125 gemhead;
#X obj 421 400 part_head;
#X msg 467 367 speed \$1;
#X obj 421 429 part_source 1 point;
#X obj 422 459 part_velocity sphere 0 0.1 0.2 0.3;
#X obj 422 487 part_size;
#X obj 420 514 part_killold 20;
#X obj 755 70 part_info;
#X obj 755 111 separator;
#X obj 755 159 scale 1 0 0 0;
#X obj 770 208 rotateXYZ;
#X obj 878 135 unpack f f f;
#X obj 860 177 * 360;
#X obj 902 176 * 360;
#X obj 943 176 * 360;
#X text 835 114 velocity data > rotation;
#X obj 770 241 translate 1 0 0 0;
#X obj 759 324 pix_image;
#X obj 759 350 pix_texture;
#X obj 759 377 rectangle 4 3;
#X obj 419 542 send pt;
#X obj 755 37 receive pt;
#X obj 191 103 tgl 15 0 empty empty empty 17 7 0 10 -262144 -1 -1 0
1;
#X obj 430 220 rotateXYZ;
#X floatatom 496 175 5 0 0 0 - - -, f 5;
#X obj 557 221 line;
#X msg 559 184 \$1 100;
#X obj 576 310 max 0.02;
#X obj 777 277 r init;
#X obj 191 151 demux . .;
#X obj 248 120 tgl 15 0 empty empty empty 17 7 0 10 -262144 -1 -1 1
1;
#X obj 135 11 inlet;
#X obj 228 13 inlet;
#X obj 37 49 r init;
#X obj 308 287 line;
#X obj 324 48 bng 15 250 50 0 empty empty start 17 7 0 10 -262144 -1
-1;
#X msg 330 98 0;
#X obj 410 57 bng 15 250 50 0 empty empty over 17 7 0 10 -262144 -1
-1;
#X obj 409 83 t b b;
#X msg 431 131 1;
#X obj 314 12 inlet;
#X obj 408 15 inlet;
#X obj 713 229 vsl 15 70 0 127 0 0 empty empty empty 0 -9 0 10 -262144
-1 -1 3260 1;
#X floatatom 692 316 5 0 0 0 - - -, f 5;
#X obj 550 241 demux . .;
#X obj 615 241 tgl 15 0 empty empty empty 17 7 0 10 -262144 -1 -1 1
1;
#X obj 469 304 min 4;
#X obj 510 308 max 0.03;
#X obj 467 275 expr $f1-$f2;
#X obj 666 239 r init;
#X msg 634 238 1;
#X obj 1016 44 gemhead 52;
#X floatatom 1003 422 5 0 0 0 - - -, f 5;
#X obj 1016 76 alpha;
#X floatatom 1088 107 5 0 0 0 - - -, f 5;
#X floatatom 1123 106 5 0 0 0 - - -, f 5;
#X floatatom 1159 105 5 0 0 0 - - -, f 5;
#X floatatom 1193 106 5 0 1 0 - - -, f 5;
#X floatatom 1102 180 5 0 0 0 - - -, f 5;
#X floatatom 1147 179 5 0 0 0 - - -, f 5;
#X obj 1072 139 colorRGB 0.2 0.6 1 0.5;
#X obj 1107 456 text3d;
#X obj 1016 15 tgl 15 0 empty empty empty 17 7 0 10 -262144 -1 -1 0
1;
#X msg 721 202 60;
#X text 588 330 SET NOISE VALUE;
#X obj 674 17 inlet;
#X obj 997 204 r init;
#X obj 536 363 line;
#X msg 543 337 \$1 200;
#X obj 559 152 r VolIn;
#X obj 576 287 expr ($f1-$f2)/12;
#X obj 1026 338 sel 0 1;
#X obj 1032 274 metro 1200;
#X msg 1030 249 1;
#X obj 1027 317 tgl 15 0 empty empty empty 17 7 0 10 -262144 -1 -1
0 1;
#X msg 1028 361 text o teu movimento revela o poema;
#X msg 1034 381 text dito na ordem certa tira-te uma foto;
#X obj 1126 247 random 360;
#X obj 1126 269 / 360;
#X obj 1127 292 pack f 1 1;
#X obj 1127 313 hsv2rgb;
#X obj 1138 334 s textColor;
#X obj 1109 35 r textColor;
#X obj 1114 64 unpack f f f;
#X msg 1045 412 font ChocolateCoveredRaindropsBOLD.ttf;
#X floatatom 91 426 5 0 0 0 - - -, f 5;
#X obj 1069 212 translateXYZ 0 3.5 0;
#X obj 53 467 translateXYZ 0 0 0.1;
#X obj 190 466 translateXYZ 0 0 0.1;
#X floatatom 245 431 5 0 0 0 - - -, f 5;
#X obj 178 432 separator;
#X obj 16 440 separator;
#X msg 345 260 0 1000;
#X msg 303 261 1 3000;
#X floatatom 135 507 5 0 0 0 - - -, f 5;
#X obj 46 536 rectangle 2.666 4;
#X obj 187 538 rectangle 2.666 4;
#X obj 54 502 pix_texture;
#X obj 185 503 pix_texture;
#X obj 171 244 pix_image;
#X msg 25 151 open poemacto_livroL.jpeg;
#X msg 149 215 open poemacto_livroR.jpeg;
#X msg 779 296 open poemacto_livro.jpeg;
#X obj 248 402 expr $f1*5.35 + 2.666;
#X obj 94 398 expr -$f1*5.35 - 2.666;
#X obj 431 107 delay 2000;
#X msg 1001 402 8;
#X obj 783 428 cnv 15 200 120 empty empty maybe_usefull 20 12 0 14
-233017 -66577 0;
#X obj 856 531 rectangle 5.333 4;
#X obj 858 506 pix_texture;
#X obj 865 480 translateXYZ;
#X floatatom 932 453 5 0 0 0 - - -, f 5;
#N canvas 1 55 450 300 tremble 0;
#X obj 145 254 outlet;
#X obj 222 256 outlet;
#X obj 157 112 random 100;
#X obj 240 113 random 100;
#X obj 206 42 r IMAGE;
#X obj 220 74 t b;
#X msg 332 79 100;
#X obj 239 150 / 1000;
#X obj 158 149 / 1000;
#X obj 158 182 - 0.05;
#X obj 236 189 - 0.05;
#X connect 2 0 8 0;
#X connect 3 0 7 0;
#X connect 4 0 5 0;
#X connect 5 0 2 0;
#X connect 5 0 3 0;
#X connect 6 0 3 1;
#X connect 6 0 2 1;
#X connect 7 0 10 0;
#X connect 8 0 9 0;
#X connect 9 0 0 0;
#X connect 10 0 1 0;
#X restore 860 454 pd tremble;
#X obj 787 496 s miximg;
#X msg 788 468 0;
#X obj 320 73 t b b;
#X connect 0 0 93 0;
#X connect 2 0 31 0;
#X connect 3 0 5 0;
#X connect 4 0 3 0;
#X connect 5 0 6 0;
#X connect 6 0 7 0;
#X connect 7 0 8 0;
#X connect 8 0 22 0;
#X connect 9 0 10 0;
#X connect 9 2 18 2;
#X connect 9 4 13 0;
#X connect 9 5 11 2;
#X connect 10 0 11 0;
#X connect 11 0 12 0;
#X connect 12 0 18 0;
#X connect 13 0 14 0;
#X connect 13 1 15 0;
#X connect 13 2 16 0;
#X connect 14 0 12 1;
#X connect 15 0 12 2;
#X connect 16 0 12 3;
#X connect 18 0 19 0;
#X connect 19 0 20 0;
#X connect 20 0 21 0;
#X connect 23 0 9 0;
#X connect 24 0 2 0;
#X connect 25 0 3 0;
#X connect 26 0 25 3;
#X connect 27 0 46 0;
#X connect 28 0 27 0;
#X connect 29 0 70 0;
#X connect 30 0 104 0;
#X connect 31 0 0 0;
#X connect 31 0 101 0;
#X connect 31 1 25 0;
#X connect 32 0 31 1;
#X connect 33 0 24 0;
#X connect 34 0 32 0;
#X connect 35 0 102 0;
#X connect 35 0 103 0;
#X connect 36 0 1 0;
#X connect 36 0 105 0;
#X connect 36 0 106 0;
#X connect 37 0 117 0;
#X connect 38 0 32 0;
#X connect 39 0 40 0;
#X connect 40 0 94 0;
#X connect 40 1 107 0;
#X connect 41 0 32 0;
#X connect 42 0 37 0;
#X connect 43 0 39 0;
#X connect 44 0 45 0;
#X connect 44 0 50 1;
#X connect 44 0 72 1;
#X connect 46 0 50 0;
#X connect 46 1 72 0;
#X connect 47 0 46 1;
#X connect 48 0 49 0;
#X connect 49 0 70 0;
#X connect 50 0 48 0;
#X connect 51 0 52 0;
#X connect 51 0 65 0;
#X connect 52 0 47 0;
#X connect 53 0 55 0;
#X connect 54 0 63 1;
#X connect 55 0 62 0;
#X connect 56 0 62 1;
#X connect 57 0 62 2;
#X connect 58 0 62 3;
#X connect 59 0 62 4;
#X connect 60 0 88 1;
#X connect 61 0 88 2;
#X connect 62 0 88 0;
#X connect 64 0 53 0;
#X connect 65 0 44 0;
#X connect 67 0 44 0;
#X connect 68 0 108 0;
#X connect 68 0 75 0;
#X connect 69 0 4 0;
#X connect 70 0 69 0;
#X connect 71 0 28 0;
#X connect 72 0 29 0;
#X connect 73 0 77 0;
#X connect 73 1 78 0;
#X connect 74 0 76 0;
#X connect 74 0 79 0;
#X connect 75 0 74 0;
#X connect 76 0 73 0;
#X connect 77 0 63 0;
#X connect 78 0 63 0;
#X connect 79 0 80 0;
#X connect 80 0 81 0;
#X connect 81 0 82 0;
#X connect 82 0 83 0;
#X connect 84 0 85 0;
#X connect 85 0 56 0;
#X connect 85 1 57 0;
#X connect 85 2 58 0;
#X connect 86 0 63 0;
#X connect 87 0 89 1;
#X connect 88 0 63 0;
#X connect 89 0 99 0;
#X connect 90 0 100 0;
#X connect 91 0 90 1;
#X connect 92 0 90 0;
#X connect 93 0 89 0;
#X connect 94 0 36 0;
#X connect 95 0 36 0;
#X connect 96 0 97 1;
#X connect 99 0 97 0;
#X connect 100 0 98 0;
#X connect 101 0 92 0;
#X connect 102 0 0 0;
#X connect 103 0 101 0;
#X connect 104 0 19 0;
#X connect 105 0 91 0;
#X connect 106 0 87 0;
#X connect 107 0 41 0;
#X connect 108 0 54 0;
#X connect 111 0 110 0;
#X connect 112 0 111 0;
#X connect 113 0 112 3;
#X connect 114 0 112 1;
#X connect 114 1 112 2;
#X connect 116 0 115 0;
#X connect 117 0 95 0;
#X connect 117 1 38 0;
#X restore 325 431 pd visual;
#N canvas 1 60 450 300 start 0;
#X obj 244 268 s defSampN-r;
#X obj 85 214 s defBang-r;
#X obj 198 230 random 8;
#X obj 152 29 r start;
#X msg 344 155 \; sampleN 0 \; sampleN 1 \; sampleN 2 \; sampleN 3
\;;
#X obj 25 112 delay 3500;
#X msg 26 139 \; liga-r 1 \;;
#X obj 150 62 t b b b b b b;
#X obj 41 246 s start-vis;
#X msg 354 112 \; PresDet-r 0;
#X obj 214 184 demux . .;
#N canvas 349 155 243 287 sequencia 0;
#X obj 76 19 inlet;
#X obj 110 241 outlet;
#X obj 101 106 f;
#X obj 133 107 + 1;
#X obj 107 158 mod 8;
#X obj 167 45 r init;
#X msg 166 67 0;
#X floatatom 148 190 5 0 0 0 - - -, f 5;
#X connect 0 0 2 0;
#X connect 2 0 3 0;
#X connect 2 0 4 0;
#X connect 3 0 2 1;
#X connect 4 0 1 0;
#X connect 4 0 7 0;
#X connect 5 0 6 0;
#X connect 6 0 2 0;
#X restore 260 227 pd sequencia;
#X obj 270 157 r Seq;
#X obj 296 194 tgl 15 0 empty empty empty 17 7 0 10 -262144 -1 -1 1
1;
#X connect 2 0 0 0;
#X connect 3 0 7 0;
#X connect 5 0 6 0;
#X connect 7 0 5 0;
#X connect 7 1 8 0;
#X connect 7 2 1 0;
#X connect 7 3 10 0;
#X connect 7 4 4 0;
#X connect 7 5 9 0;
#X connect 10 0 2 0;
#X connect 10 1 11 0;
#X connect 11 0 0 0;
#X connect 12 0 10 1;
#X connect 12 0 13 0;
#X restore 227 73 pd start;
#X obj 299 352 r start-vis;
#X obj 355 381 r over-vis;
#N canvas 1 87 394 273 over 0;
#X obj 67 18 r over;
#X msg 256 176 \; liga-r 0 \;;
#X obj 219 216 s over-sound;
#X obj 23 189 delay 5000;
#X obj 299 55 bng 15 250 50 0 empty empty empty 17 7 0 10 -262144 -1
-1;
#X obj 137 223 s over-vis;
#X obj 69 65 t b b b b;
#X msg 23 215 \; PresDet-r 1;
#X obj 299 28 r silence;
#X obj 329 59 tgl 15 0 empty empty empty 17 7 0 10 -262144 -1 -1 0
1;
#X connect 0 0 6 0;
#X connect 3 0 7 0;
#X connect 4 0 6 0;
#X connect 6 0 3 0;
#X connect 6 1 5 0;
#X connect 6 2 2 0;
#X connect 6 3 1 0;
#X connect 8 0 4 0;
#X connect 8 0 9 0;
#X restore 308 72 pd over;
#X obj 59 495 cnv 15 100 30 empty empty empty 20 12 0 14 -233017 -66577
0;
#N canvas 500 308 329 303 presence_det 0;
#X obj 38 110 pix_movement;
#X obj 38 185 pix_blob;
#X msg 60 160 4;
#X floatatom 99 185 10 0 0 0 - - -, f 10;
#X obj 38 78 spigot;
#X obj 91 81 tgl 15 0 empty empty empty 17 7 0 10 -262144 -1 -1 0 1
;
#X obj 60 137 loadbang;
#X obj 76 276 s start;
#X obj 119 81 r CheckImg;
#X obj 81 237 sel 1;
#X floatatom 123 159 5 0 0 0 - - -, f 5;
#X obj 185 58 print;
#X obj 38 13 inlet;
#X obj 254 178 r THRpres;
#X floatatom 242 219 5 0 0 0 - - -, f 5;
#X obj 83 211 >;
#X connect 0 0 1 0;
#X connect 1 3 3 0;
#X connect 1 3 15 0;
#X connect 2 0 1 1;
#X connect 4 0 0 0;
#X connect 5 0 4 1;
#X connect 6 0 2 0;
#X connect 8 0 5 0;
#X connect 9 0 7 0;
#X connect 10 0 1 1;
#X connect 12 0 4 0;
#X connect 13 0 14 0;
#X connect 13 0 15 1;
#X connect 15 0 9 0;
#X restore 62 503 pd presence_det;
#N canvas 25 411 483 265 notes 0;
#X text 15 15 sampleN é o numero do sample \, enviado para sampleCoords
cria as coordenadas que estao guardadas em dois arrays Xcoor e Ycoor
de size 4 as coordenadas criadas 1-X 1-Y \, 2-X 2-Y etc sao enviadas
para os HotSpots.;
#X obj 24 157 r CheckImg-r;
#X obj 24 181 tgl 15 0 empty empty empty 17 7 0 10 -262144 -1 -1 1
1;
#X text 120 158 tem algum problema com a versao anterior \; teve que
modificar esta variavel \, tem algo que aciona o presence detection
a toa;
#X connect 1 0 2 0;
#X restore 382 488 pd notes;
#X connect 0 0 9 0;
#X connect 1 0 2 0;
#X connect 2 0 6 0;
#X connect 3 0 51 0;
#X connect 4 0 3 0;
#X connect 5 0 4 0;
#X connect 6 0 33 0;
#X connect 7 0 6 0;
#X connect 8 0 7 0;
#X connect 9 0 1 0;
#X connect 10 0 11 0;
#X connect 12 0 15 0;
#X connect 14 0 10 0;
#X connect 15 0 13 0;
#X connect 16 0 5 0;
#X connect 17 0 18 0;
#X connect 18 0 16 4;
#X connect 19 0 20 0;
#X connect 20 0 1 0;
#X connect 22 0 20 0;
#X connect 23 0 0 0;
#X connect 32 0 29 0;
#X connect 33 0 34 0;
#X connect 33 1 16 0;
#X connect 35 0 31 0;
#X connect 36 0 31 0;
#X connect 41 0 42 0;
#X connect 42 0 45 1;
#X connect 43 0 45 0;
#X connect 44 0 45 4;
#X connect 47 0 45 2;
#X connect 48 0 45 3;
#X restore 144 46 pd patch;
#X obj 75 151 tgl 30 1 show_spot empty showsp 0 40 0 10 -3 -159808
-258113 1 1;
#X obj 125 208 tgl 30 1 full_sample empty full 0 40 0 12 -232576 -1
-1 0 1;
#N canvas 141 146 407 358 instructions 0;
#X text 279 288 Mick Mengucci \; LabIO 2015;
#X text 4 19 HOT SPOT This patch allows you to record a sample and
trigger it by changing the color in a certain spot (HOT) in the image
\; 1) Click on "start" and then "rec" on-off 4 times and record your
4 samples \; "Conn" to connect the sound patch. 2) Click "Liga" to
turn on the hot-spots \; Obs: Adjust the level of response to color
change (slider threshold) and of noise-silence \; 3) the threshold
'THRpres' of presence detection to trigger start and the threshold
of sensitivity of HotSpots 'THR' must be calibrated to each scene and
illumination condition should not vary during the game. 4) Touche the
4 Hotsposts in sequence 0-1-2-3 and take a picture. "Clear" erases
the sample \; "show spot" shows the spot in red \; "full sample" plays
the whole sample otherwise it retriggers it any time you hit the hot
spot \; **The abstraction[ColorDistance] must be in the same directory!
\;;
#X restore 79 22 pd instructions;
#X obj 171 152 vsl 25 100 0 1 0 0 THR THR-r THR_col -10 -10 0 10 -262130
-1 -1 2970 1;
#X obj 295 84 bng 50 250 50 0 start start-r start 2 12 0 10 -204786
-1 -1;
#X obj 368 85 bng 50 250 50 0 over empty over 3 12 0 10 -261234 -1
-1;
#X obj 409 145 vsl 15 40 0 127 0 0 empty VolIn-show empty 0 -9 0 10
-262144 -1 -1 0 1;
#X obj 366 156 tgl 30 1 ShowSoundIn empty SoundIn 0 37 0 11 -159808
-1 -1 0 1;
#X obj 298 151 bng 40 250 50 0 defBang defBang-r defSamp 0 7 0 10 -159808
-257985 -191407;
#X obj 300 226 hradio 15 1 0 8 defSampN defSampN-r defSampleN 0 -8
0 10 -262144 -1 -1 0;
#X obj 75 208 tgl 30 1 dev2 dev2-r device 0 37 0 11 -83269 -1 -1 0
1;
#X obj 125 151 tgl 30 1 textOn textOn-r textOn 0 40 0 12 -232576 -1
-1 1 1;
#X obj 18 57 tgl 50 0 conn conn-r conn 17 7 0 10 -257985 -1 -1 1 1
;
#X obj 81 81 tgl 25 0 empty YA empty 17 7 0 10 -262144 -1 -1 1 1;
#X obj 17 200 tgl 50 0 CheckImg PresDet-r PresDet 0 16 0 12 -159808
-1 -1 0 1;
#X obj 214 152 vsl 25 100 0 1 0 0 THRpres THRpres-r THR_pres -10 -10
0 10 -232576 -1 -1 30 1;
#X floatatom 212 259 5 0 0 0 - - -, f 5;
#X floatatom 171 259 5 0 0 0 - - -, f 5;
#X floatatom 191 99 10 0 0 0 - - -, f 10;
#X obj 294 22 tgl 30 0 post_online empty post_online 17 7 0 10 -262144
-1 -1 0 1;
#X obj 391 23 tgl 30 0 Seq Seq-r sequenceOn 17 7 0 10 -262144 -1 -1
1 1;
#X connect 7 0 21 0;
#X connect 19 0 20 0;
#X connect 22 0 19 0;
