#N canvas 1 89 737 481 10;
#X obj 364 76 gemhead 56;
#X msg 358 173 1 1 0;
#X obj 268 439 circle 0.5;
#X obj 38 161 pix_data;
#X obj 25 215 ColorDistance;
#X obj 100 192 spigot;
#X obj 42 192 t a a;
#X obj 24 259 > 0.1;
#X obj 53 7 r IMAGE;
#X obj 107 166 r STORE;
#X obj 53 238 r THR;
#X obj 331 253 translateXYZ;
#X obj 439 109 t b a;
#X obj 448 18 r show_spot;
#X obj 448 77 gemhead 56;
#X obj 464 156 translateXYZ;
#X obj 25 313 sel 1 0;
#X obj 24 283 change;
#X msg 90 438 \; \$1-bolaOn 1;
#X msg 172 444 \; \$1-bolaOn 0;
#X obj 364 18 r \$1-bolaOn;
#X obj 158 419 f \$1;
#X obj 79 417 f \$1;
#X obj 590 14 loadbang;
#X msg 594 59 \; \$1-bolaOn 0 \;;
#X obj 592 38 f \$1;
#X obj 112 8 r \$1-X;
#X obj 155 8 r \$1-Y;
#X obj 240 56 * 10;
#X obj 241 87 - 5;
#X obj 284 56 * 7.6;
#X obj 284 87 - 3.8;
#X obj 421 282 tgl 15 0 empty empty empty 17 7 0 10 -262144 -1 -1 1
1;
#X obj 323 278 demux . .;
#X obj 540 363 f \$1;
#X obj 452 455 text3d;
#X msg 578 390 text \$1;
#X obj 499 314 r init;
#X floatatom 449 289 5 0 0 0 - - -;
#X obj 429 262 r textOn;
#X obj 340 205 color 1 1 0;
#X obj 321 378 line;
#X obj 290 301 t a b b;
#X obj 85 281 print \$1;
#X msg 342 355 0.5;
#X msg 298 354 0 300;
#X obj 19 347 t b b b;
#N canvas 1 56 450 300 dollarsigns_theory 0;
#X obj 70 134 r clear;
#X msg 126 25 bang;
#X obj 144 59 f \$0;
#X floatatom 146 85 5 0 0 0 - - -;
#X floatatom 104 86 5 0 0 0 - - -;
#X obj 106 58 f \$1;
#X msg 61 197 \; \$1-sample const 0;
#X obj 70 161 f \$1;
#X text 221 120 \$1 in the object \; = arg of the abs \;;
#X text 212 155 \$1 in the message \; = arg of the incoming value \;
;
#X connect 0 0 7 0;
#X connect 1 0 2 0;
#X connect 1 0 5 0;
#X connect 2 0 3 0;
#X connect 5 0 4 0;
#X connect 7 0 6 0;
#X restore 557 106 pd dollarsigns_theory;
#X obj 39 374 s bangSample\$1;
#X floatatom 508 130 5 0 0 0 - - -;
#X obj 444 312 sel 1;
#X obj 12 398 bng 15 250 50 0 empty empty empty 17 7 0 10 -262144 -1
-1;
#X obj 382 333 separator;
#X obj 487 335 t b b b;
#X floatatom 401 371 5 0 0 0 - - -;
#X floatatom 437 372 5 0 0 0 - - -;
#X msg 480 370 20;
#X obj 385 404 translateXYZ -0.1 0.1 0;
#X obj 127 236 print;
#X floatatom 110 44 5 0 0 0 - - -;
#X floatatom 150 44 5 0 0 0 - - -;
#N canvas 1 55 416 667 simbulzinho 0;
#X obj 80 119 pix_image;
#X obj 214 448 pix_texture;
#X obj 35 52 alpha;
#X obj 62 620 rectangle 2 2;
#X obj 83 286 colorRGB;
#X floatatom 126 255 5 0 0 0 - - -;
#X floatatom 168 254 5 0 0 0 - - -;
#X floatatom 203 255 5 0 0 0 - - -;
#X floatatom 244 256 5 0 0 0 - - -;
#X obj 139 187 vsl 15 60 0 1 0 0 empty empty empty 0 -9 0 10 -262144
-1 -1 5900 1;
#X obj 162 187 vsl 15 60 0 1 0 0 empty empty empty 0 -9 0 10 -262144
-1 -1 0 1;
#X obj 186 184 vsl 15 60 0 1 0 0 empty empty empty 0 -9 0 10 -262144
-1 -1 5900 1;
#X obj 214 184 vsl 15 60 0 1 0 0 empty empty empty 0 -9 0 10 -262144
-1 -1 0 1;
#X obj 84 475 line;
#X obj 357 319 bng 15 250 50 0 empty empty empty 17 7 0 10 -262144
-1 -1;
#X obj 84 504 pow 3;
#X obj 84 529 * 0.5;
#X floatatom 154 577 5 0 0 0 - - -;
#X floatatom 204 576 5 0 0 0 - - -;
#X obj 51 362 t b b b;
#X obj 27 397 delay 350;
#X obj 34 16 inlet;
#X obj 127 19 inlet;
#X obj 213 411 translateXYZ;
#X floatatom 225 381 5 0 0 0 - - -;
#X floatatom 263 381 5 0 0 0 - - -;
#X obj 365 286 r init;
#X obj 229 16 inlet;
#X obj 230 59 unpack f f f;
#X obj 350 17 inlet;
#X msg 92 441 1.3 300;
#X msg 150 444 0.8;
#X msg 32 444 0.8 500;
#X connect 0 0 4 0;
#X connect 1 0 3 0;
#X connect 2 0 0 0;
#X connect 4 0 1 0;
#X connect 5 0 4 1;
#X connect 6 0 4 2;
#X connect 7 0 4 3;
#X connect 8 0 4 4;
#X connect 9 0 5 0;
#X connect 10 0 6 0;
#X connect 11 0 7 0;
#X connect 12 0 8 0;
#X connect 13 0 15 0;
#X connect 14 0 19 0;
#X connect 15 0 16 0;
#X connect 16 0 3 1;
#X connect 16 0 3 2;
#X connect 16 0 17 0;
#X connect 18 0 3 1;
#X connect 18 0 3 2;
#X connect 19 0 20 0;
#X connect 19 1 30 0;
#X connect 19 2 31 0;
#X connect 20 0 32 0;
#X connect 21 0 2 0;
#X connect 22 0 0 0;
#X connect 24 0 23 1;
#X connect 25 0 23 2;
#X connect 26 0 14 0;
#X connect 27 0 28 0;
#X connect 28 0 9 0;
#X connect 28 1 10 0;
#X connect 28 2 11 0;
#X connect 29 0 14 0;
#X connect 30 0 13 0;
#X connect 31 0 13 0;
#X connect 32 0 13 0;
#X restore 494 238 pd simbulzinho;
#X msg 584 177 open simbulo.png;
#X obj 603 150 r init;
#X msg 607 199 1 0 1;
#X obj 606 232 r \$1-bolaOn;
#X obj 607 261 sel 1 0;
#X msg 521 453 font fonts/Germaniadow.ttf;
#X msg 454 430 font fonts/AlbertText-Bold.ttf;
#X obj 593 356 + 1;
#X connect 0 0 40 0;
#X connect 1 0 40 1;
#X connect 3 1 6 0;
#X connect 4 0 7 0;
#X connect 5 0 4 1;
#X connect 6 0 4 0;
#X connect 6 1 5 0;
#X connect 7 0 17 0;
#X connect 8 0 3 1;
#X connect 9 0 5 1;
#X connect 10 0 7 1;
#X connect 11 0 33 0;
#X connect 12 0 3 0;
#X connect 12 1 15 0;
#X connect 13 0 14 0;
#X connect 14 0 12 0;
#X connect 15 0 61 0;
#X connect 16 0 46 0;
#X connect 16 1 21 0;
#X connect 17 0 16 0;
#X connect 20 0 0 0;
#X connect 21 0 19 0;
#X connect 22 0 18 0;
#X connect 23 0 25 0;
#X connect 25 0 24 0;
#X connect 26 0 3 2;
#X connect 26 0 28 0;
#X connect 26 0 59 0;
#X connect 27 0 3 3;
#X connect 27 0 30 0;
#X connect 27 0 60 0;
#X connect 28 0 29 0;
#X connect 29 0 11 1;
#X connect 29 0 15 1;
#X connect 30 0 31 0;
#X connect 31 0 11 2;
#X connect 31 0 15 2;
#X connect 32 0 33 1;
#X connect 32 0 50 0;
#X connect 33 0 42 0;
#X connect 33 1 52 0;
#X connect 34 0 69 0;
#X connect 36 0 35 0;
#X connect 37 0 53 0;
#X connect 39 0 32 0;
#X connect 39 0 38 0;
#X connect 40 0 11 0;
#X connect 41 0 2 1;
#X connect 42 0 2 0;
#X connect 42 1 45 0;
#X connect 42 2 44 0;
#X connect 44 0 41 0;
#X connect 45 0 41 0;
#X connect 46 0 51 0;
#X connect 46 1 48 0;
#X connect 46 2 22 0;
#X connect 49 0 15 3;
#X connect 50 0 53 0;
#X connect 52 0 57 0;
#X connect 53 0 34 0;
#X connect 53 1 56 0;
#X connect 53 2 68 0;
#X connect 54 0 57 1;
#X connect 55 0 57 2;
#X connect 56 0 35 1;
#X connect 57 0 35 0;
#X connect 62 0 61 1;
#X connect 63 0 62 0;
#X connect 63 0 64 0;
#X connect 64 0 61 2;
#X connect 65 0 66 0;
#X connect 66 0 61 3;
#X connect 68 0 35 0;
#X connect 69 0 36 0;
