#N canvas 48 82 395 668 10;
#X obj 163 46 gemwin;
#X msg 161 17 create \, 1;
#X obj 271 61 pix_video;
#X obj 270 122 pix_texture;
#X obj 268 176 rectangle 4 3;
#X obj 83 12 gemhead;
#X obj 80 119 pix_image;
#X msg 111 91 open simbulo.png;
#X obj 272 11 tgl 15 0 empty empty empty 17 7 0 10 -262144 -1 -1 1
1;
#X obj 214 448 pix_texture;
#X obj 84 48 alpha;
#X obj 271 35 gemhead 49;
#X obj 213 411 translateXYZ;
#X obj 62 620 rectangle 2 2;
#X floatatom 225 381 5 0 0 0 - - -, f 5;
#X floatatom 263 381 5 0 0 0 - - -, f 5;
#X obj 83 286 colorRGB;
#X floatatom 126 255 5 0 0 0 - - -, f 5;
#X floatatom 168 254 5 0 0 0 - - -, f 5;
#X floatatom 203 255 5 0 0 0 - - -, f 5;
#X floatatom 244 256 5 0 0 0 - - -, f 5;
#X obj 126 168 vsl 15 60 0 1 0 0 empty empty empty 0 -9 0 10 -262144
-1 -1 5900 1;
#X obj 149 168 vsl 15 60 0 1 0 0 empty empty empty 0 -9 0 10 -262144
-1 -1 700 1;
#X obj 173 165 vsl 15 60 0 1 0 0 empty empty empty 0 -9 0 10 -262144
-1 -1 3200 1;
#X obj 201 165 vsl 15 60 0 1 0 0 empty empty empty 0 -9 0 10 -262144
-1 -1 5900 1;
#X obj 84 475 line;
#X obj 61 328 bng 15 250 50 0 empty empty empty 17 7 0 10 -262144 -1
-1;
#X obj 84 504 pow 3;
#X msg 92 441 1 300;
#X obj 84 529 * 0.5;
#X floatatom 154 577 5 0 0 0 - - -, f 5;
#X floatatom 204 576 5 0 0 0 - - -, f 5;
#X obj 51 362 t b b b;
#X msg 139 438 0.7;
#X msg 32 444 0.7 500;
#X obj 27 397 delay 350;
#X connect 1 0 0 0;
#X connect 2 0 3 0;
#X connect 3 0 4 0;
#X connect 5 0 10 0;
#X connect 6 0 16 0;
#X connect 7 0 6 0;
#X connect 8 0 11 0;
#X connect 9 0 13 0;
#X connect 10 0 6 0;
#X connect 11 0 2 0;
#X connect 12 0 9 0;
#X connect 14 0 12 1;
#X connect 15 0 12 2;
#X connect 16 0 12 0;
#X connect 17 0 16 1;
#X connect 18 0 16 2;
#X connect 19 0 16 3;
#X connect 20 0 16 4;
#X connect 21 0 17 0;
#X connect 22 0 18 0;
#X connect 23 0 19 0;
#X connect 24 0 20 0;
#X connect 25 0 27 0;
#X connect 26 0 32 0;
#X connect 27 0 29 0;
#X connect 28 0 25 0;
#X connect 29 0 13 1;
#X connect 29 0 13 2;
#X connect 29 0 30 0;
#X connect 31 0 13 1;
#X connect 31 0 13 2;
#X connect 32 0 35 0;
#X connect 32 1 28 0;
#X connect 32 2 33 0;
#X connect 33 0 25 0;
#X connect 34 0 25 0;
#X connect 35 0 34 0;
